# xmcd
#
# Track frame offsets:
# 150
# 5841
# 19530
# 32398
# 51490
# 59119
# 87699
# 123428
# 138182
# 148456
# 156175
# 180075
# 196834
# 215552
# 221339
# 236924
#
# Disc length: 3259 seconds
#
#
# Revision: 4
# Processed by: cddbd v1.5.1PL2 Copyright (c) Steve Scherf et al.
# Submitted via: FreeRIP 2.944 
#
DISCID=ed0cb910
DTITLE=Pink Floyd - Is There Anybody Out There? The Wall Live 1980 - 81 CD 
DYEAR=1980
DGENRE=Progressive Rock
TTITLE0=Master of Ceremonies
TTITLE1=In The Flesh?
TTITLE2=The Thin Ice
TTITLE3=Another Brick In The Wall - Part 1
TTITLE4=The Happiest Days Of Our Lives
TTITLE5=Another Brick In The Wall - Part 2
TTITLE6=Mother
TTITLE7=Goodbye Blue Sky
TTITLE8=Empty Spaces
TTITLE9=What Shall We Do Now?
TTITLE10=Young Lust
TTITLE11=One Of My Turns
TTITLE12=Don't Leave Me Now
TTITLE13=Another Brick In The Wall - Part 3
TTITLE14=The Last Few Bricks
TTITLE15=Goodbye Cruel World
EXTD=
EXTT0=
EXTT1=
EXTT2=
EXTT3=
EXTT4=
EXTT5=
EXTT6=
EXTT7=
EXTT8=
EXTT9=
EXTT10=
EXTT11=
EXTT12=
EXTT13=
EXTT14=
EXTT15=
PLAYORDER=
